<svg viewBox="0 0 200 160" xmlns="http://www.w3.org/2000/svg">
  <defs>
    <linearGradient id="rulerGrad" x1="0" y1="0" x2="1" y2="0.6">
      <stop offset="0%" stop-color="#fff8d6" stop-opacity="0.95"/>
      <stop offset="50%" stop-color="#fed64e" stop-opacity="0.9"/>
      <stop offset="100%" stop-color="#f8b825" stop-opacity="0.85"/>
    </linearGradient>
    <filter id="dropShadow" x="-10%" y="-10%" width="130%" height="130%">
      <feDropShadow dx="3" dy="6" stdDeviation="5" flood-color="#403310" flood-opacity="0.22"/>
    </filter>
  </defs>
  <g transform="rotate(-18 100 80)" filter="url(#dropShadow)">
    <!-- جسم المسطرة الشفاف -->
    <rect x="15" y="60" width="170" height="42" rx="4" fill="url(#rulerGrad)" stroke="#d99f18" stroke-width="1.5"/>
    <!-- لمعان بلاستيكي علوي -->
    <rect x="17" y="62" width="166" height="6" rx="2" fill="#ffffff" fill-opacity="0.6"/>
    <!-- تدريجات السنتيمتر -->
    <line x1="24" y1="60" x2="24" y2="76" stroke="#785007" stroke-width="1.5"/>
              <text x="24" y="86" font-size="8" font-family="Arial,sans-serif" font-weight="bold" fill="#785007" text-anchor="middle">0</text><line x1="33.5" y1="60" x2="33.5" y2="69" stroke="#785007" stroke-width="1"/>
              <line x1="43" y1="60" x2="43" y2="69" stroke="#785007" stroke-width="1"/>
              <line x1="52.5" y1="60" x2="52.5" y2="69" stroke="#785007" stroke-width="1"/>
              <line x1="62" y1="60" x2="62" y2="69" stroke="#785007" stroke-width="1"/>
              <line x1="71.5" y1="60" x2="71.5" y2="76" stroke="#785007" stroke-width="1.5"/>
              <text x="71.5" y="86" font-size="8" font-family="Arial,sans-serif" font-weight="bold" fill="#785007" text-anchor="middle">5</text><line x1="81" y1="60" x2="81" y2="69" stroke="#785007" stroke-width="1"/>
              <line x1="90.5" y1="60" x2="90.5" y2="69" stroke="#785007" stroke-width="1"/>
              <line x1="100" y1="60" x2="100" y2="69" stroke="#785007" stroke-width="1"/>
              <line x1="109.5" y1="60" x2="109.5" y2="69" stroke="#785007" stroke-width="1"/>
              <line x1="119" y1="60" x2="119" y2="76" stroke="#785007" stroke-width="1.5"/>
              <text x="119" y="86" font-size="8" font-family="Arial,sans-serif" font-weight="bold" fill="#785007" text-anchor="middle">10</text><line x1="128.5" y1="60" x2="128.5" y2="69" stroke="#785007" stroke-width="1"/>
              <line x1="138" y1="60" x2="138" y2="69" stroke="#785007" stroke-width="1"/>
              <line x1="147.5" y1="60" x2="147.5" y2="69" stroke="#785007" stroke-width="1"/>
              <line x1="157" y1="60" x2="157" y2="69" stroke="#785007" stroke-width="1"/>
              <line x1="166.5" y1="60" x2="166.5" y2="76" stroke="#785007" stroke-width="1.5"/>
              <text x="166.5" y="86" font-size="8" font-family="Arial,sans-serif" font-weight="bold" fill="#785007" text-anchor="middle">15</text><line x1="176" y1="60" x2="176" y2="69" stroke="#785007" stroke-width="1"/>
              
    <!-- ثقب التعليق في المسطرة -->
    <circle cx="174" cy="81" r="4.5" fill="#f8f7fc" stroke="#c59014" stroke-width="1.5"/>
  </g>
</svg>